inDegrees=no
num_controls=7
num_derivatives=13
num_iterations=119
num_multipliers=7
num_parameters=0
num_slacks=7
num_states=26
objective=5.457227
objective_accelerations=0.534635
objective_balance=0.117849
objective_effort=0.371147
objective_height=4.392605
objective_ligament=0.040991
solver_duration=1367.198833
status=Solve_Succeeded
success=true
DataType=double
version=3
OpenSimVersion=4.4-2022-07-23-0e9fedc
endheader
time	/jointset/ground_pelvis/pelvis_tilt/value	/jointset/ground_pelvis/pelvis_tx/value	/jointset/ground_pelvis/pelvis_ty/value	/jointset/hip_l/hip_flexion_l/value	/jointset/hip_l/hip_adduction_l/value	/jointset/hip_l/hip_rotation_l/value	/jointset/back/lumbar_extension/value	/jointset/patellofemoral_l/patellar_flexion_l/value	/jointset/knee_l/knee_flexion_l/value	/jointset/knee_l/knee_adduction_l/value	/jointset/knee_l/knee_rotation_l/value	/jointset/ankle_l/ankle_angle_l/value	/jointset/subtalar_l/subtalar_angle_l/value	/jointset/ground_pelvis/pelvis_tilt/speed	/jointset/ground_pelvis/pelvis_tx/speed	/jointset/ground_pelvis/pelvis_ty/speed	/jointset/hip_l/hip_flexion_l/speed	/jointset/hip_l/hip_adduction_l/speed	/jointset/hip_l/hip_rotation_l/speed	/jointset/back/lumbar_extension/speed	/jointset/patellofemoral_l/patellar_flexion_l/speed	/jointset/knee_l/knee_flexion_l/speed	/jointset/knee_l/knee_adduction_l/speed	/jointset/knee_l/knee_rotation_l/speed	/jointset/ankle_l/ankle_angle_l/speed	/jointset/subtalar_l/subtalar_angle_l/speed	/forceset/tau_hip_flexion_l	/forceset/tau_hip_adduction_l	/forceset/tau_hip_rotation_l	/forceset/tau_knee_flexion_l	/forceset/tau_ankle_angle_l	/forceset/tau_subtalar_angle_l	/forceset/tau_lumbar_extension	lambda_cid13_p0	lambda_cid13_p1	lambda_cid13_p2	lambda_cid13_p3	lambda_cid13_p4	lambda_cid13_p5	lambda_cid14_p0	/jointset/ground_pelvis/pelvis_tilt/accel	/jointset/ground_pelvis/pelvis_tx/accel	/jointset/ground_pelvis/pelvis_ty/accel	/jointset/hip_l/hip_flexion_l/accel	/jointset/hip_l/hip_adduction_l/accel	/jointset/hip_l/hip_rotation_l/accel	/jointset/back/lumbar_extension/accel	/jointset/patellofemoral_l/patellar_flexion_l/accel	/jointset/knee_l/knee_flexion_l/accel	/jointset/knee_l/knee_adduction_l/accel	/jointset/knee_l/knee_rotation_l/accel	/jointset/ankle_l/ankle_angle_l/accel	/jointset/subtalar_l/subtalar_angle_l/accel	gamma_cid13_p0	gamma_cid13_p1	gamma_cid13_p2	gamma_cid13_p3	gamma_cid13_p4	gamma_cid13_p5	gamma_cid14_p0
1	-0.5185538677440746	-0.04828302630046295	0.6443994672620248	1.681073899155975	-0.2905249770421499	0.1483175049894922	-0.4363299148013273	1.221146755517417	1.221146755516995	-0.1745075799082748	0.1745239386497529	0.2640786239506385	0.01554023521734108	-0.01055138829007049	0.0001093843092640837	-0.003505576826214701	0.01746517617181376	0.000622630515819634	0.003149609079217048	0.0002413554211852751	0.008578313197096616	0.008578313197098147	-4.281113903669106e-05	-1.319037571143816e-05	0.002189981509252563	0.00121908220707259	-0.3654170267408788	0.03235462704359698	-0.01857490753416678	-0.2728685085428608	0.0009609733407216793	0.03087987261155588	0.312487891172498	-43.9332127505268	-5.857794506304164	0.6903057015178198	16.30819126525545	-714.3973752479708	-44.40210035883554	-0.4681692026174222	1.465244785417995	0.07609387865675662	1.490828581275869	-5.328803271741521	-0.3678149919085023	-1.713169370668371	-0.02263619441027526	-4.789034949376401	-4.789034949376818	-0.04741754136158419	0.0194702751847051	-1.22140879786451	-0.7067018163011695	2.140774905702254e-09	1.343377261215095e-09	-5.27608812859393e-09	-3.93994160298621e-09	2.711706784590369e-09	-2.434727627052585e-09	8.800928991783293e-10
1.01	-0.518586630676344	-0.04827817093417271	0.6444388806077852	1.680982798333463	-0.2905362939476208	0.1482622139613795	-0.4363281546132169	1.220993313825897	1.22099331382603	-0.1745080132492242	0.1745239908032249	0.2640396708827679	0.01551824595489909	0.003999268801446414	0.0008608475426387359	0.01139060158531808	-0.03569359225149335	-0.00288345450795607	-0.01421010401784423	9.773514040332571e-05	-0.03928239014753716	-0.03928239014753909	-4.271699255584294e-05	1.866516512169065e-05	-0.009989165067447856	-0.00561487482313758	-0.3652986277551447	0.03239378727281611	-0.01859238081708939	-0.2729134635473344	0.001087648043411354	0.03087791777455821	0.312395683238238	-43.89005509310807	-5.865216725296342	0.6923054770013879	16.27887085099283	-714.3531844209448	-44.41599449423303	-0.4702559795924962	1.450046133906501	0.07454745846116144	1.489364199899275	-5.310651650692174	-0.3416253262359845	-1.747720082678665	-0.01216704009546148	-4.786947876958545	-4.786947876958522	0.0238917960221917	-0.005705879260066455	-1.217453206366679	-0.6714351409186469	-4.528880481941091e-09	-1.062954941147229e-08	2.67893999632568e-08	5.522431983355262e-09	-7.953686169131916e-09	3.838934162401401e-09	-4.679014815717967e-09
1.02	-0.5184738730451457	-0.04826582595299125	0.6446273260834223	1.680359862222156	-0.2905825957170489	0.1480332562416105	-0.4363282190440134	1.220360793130939	1.220360793131599	-0.1745084118680109	0.1745242116974881	0.2638786692253706	0.01542797862324766	0.01855272440851387	0.001607307287506438	0.02630084914914457	-0.0889018815974203	-0.00637434227669183	-0.03158372925304416	-0.0001235689476565301	-0.087237487490251	-0.08723748749025537	-3.58667113092782e-05	2.055779424715754e-05	-0.02221973639591969	-0.012436531634864	-0.3651802287690581	0.03243294750208453	-0.01860985410033816	-0.2729584185518225	0.001214322746045441	0.03087596293761295	0.3123034753043395	-43.8565831701643	-5.869591147533022	0.6922747365302947	16.29432301192419	-714.4323150018873	-44.39394381887197	-0.478856552145582	1.465804488528027	0.07509318095540458	1.493642411734624	-5.3387074562655	-0.3647755409004573	-1.715951798296116	-0.03817295586302968	-4.80791374899243	-4.80791374899264	-0.04606631440834655	0.01347769284308749	-1.231693748218713	-0.7042417726043277	-8.8868187652409e-09	-2.177777488074914e-08	6.117726956989384e-08	9.535338240463685e-09	-1.465232641189257e-08	1.403559071919647e-08	-1.121445964875931e-08
1.03	-0.518215591125282	-0.04824594163928213	0.6449648665306743	1.679204711056112	-0.2906636959105373	0.1476305984633806	-0.4363302209931268	1.219248510746417	1.219248510746985	-0.1745087349448943	0.1745243357083552	0.2635952866015683	0.0152696569794574	0.03310173899733313	0.002378712040022746	0.04120185039806688	-0.142125210078971	-0.009839623608457479	-0.04894192015821384	-0.0002233048422935392	-0.1352085722373593	-0.1352085722373616	-2.807726113378756e-05	3.675872271226828e-06	-0.03444712834532724	-0.01921559278990596	-0.3653355573566839	0.03253585890837841	-0.01863772751321149	-0.2725618334328186	0.00119784383856206	0.03098828913783936	0.3125361441641298	-43.85261024481544	-5.930878181063528	0.7155335050147138	16.17408697281642	-714.4148546534335	-44.4272579398295	-0.4942034185739842	1.449161326400144	0.07954033291656053	1.487516193608038	-5.313675380892627	-0.336506201264204	-1.744882529516697	0.01215347285433629	-4.790139669472151	-4.790139669471791	0.02429492255214231	-0.009377000060768094	-1.216812773478877	-0.662913765590664	-1.322116809849637e-08	-3.291758503162383e-08	9.558883694708993e-08	1.34926376880901e-08	-2.131048958617399e-08	2.427227783484199e-08	-1.77598671054552e-08
